<svg width="720" height="960" viewBox="0 0 720 960" fill="none" xmlns="http://www.w3.org/2000/svg">
<g clip-path="url(#clip0_3153_30431)">
<rect width="720" height="960" fill="#F2F4F7"/>
<line y1="-1.45973" x2="15.6897" y2="-1.45973" transform="matrix(0.341681 -0.939816 0.939569 0.34236 256.938 638.461)" stroke="white" stroke-width="2.91946"/>
<line y1="-1.45973" x2="15.6873" y2="-1.45973" transform="matrix(0.499579 -0.866268 0.865782 0.500421 290.348 637.971)" stroke="white" stroke-width="2.91946"/>
<line y1="-1.45973" x2="15.6845" y2="-1.45973" transform="matrix(0.642364 -0.7664 0.765689 0.643211 323.938 637.48)" stroke="white" stroke-width="2.91946"/>
<line y1="-1.45973" x2="15.6814" y2="-1.45973" transform="matrix(0.765689 -0.643211 0.642364 0.7664 357.75 636.5)" stroke="white" stroke-width="2.91946"/>
<line y1="-1.45973" x2="15.6814" y2="-1.45973" transform="matrix(-0.765689 -0.643211 0.642364 -0.7664 23.0938 636.5)" stroke="white" stroke-width="2.91946"/>
<line y1="-1.45973" x2="15.6845" y2="-1.45973" transform="matrix(-0.642364 -0.7664 0.765689 -0.643211 56.9141 637.48)" stroke="white" stroke-width="2.91946"/>
<line y1="-1.45973" x2="15.6873" y2="-1.45973" transform="matrix(-0.499579 -0.866268 0.865782 -0.500421 90.5 637.971)" stroke="white" stroke-width="2.91946"/>
<line y1="-1.45973" x2="15.6897" y2="-1.45973" transform="matrix(-0.341681 -0.939816 0.939569 -0.34236 123.91 638.461)" stroke="white" stroke-width="2.91946"/>
<line y1="-1.45973" x2="15.6912" y2="-1.45973" transform="matrix(-0.173459 -0.984841 0.984774 -0.173837 157.199 638.952)" stroke="white" stroke-width="2.91946"/>
<line x1="188.966" y1="638.952" x2="188.966" y2="623.26" stroke="white" stroke-width="2.91946"/>
<line y1="-1.45973" x2="15.6912" y2="-1.45973" transform="matrix(0.173459 -0.984841 0.984774 0.173837 223.648 638.952)" stroke="white" stroke-width="2.91946"/>
<line y1="-1.45973" x2="15.6897" y2="-1.45973" transform="matrix(0.341681 -0.939816 0.939569 0.34236 221.672 665.922)" stroke="white" stroke-width="2.91946"/>
<line y1="-1.45973" x2="15.6873" y2="-1.45973" transform="matrix(0.499579 -0.866268 0.865782 0.500421 255.078 665.431)" stroke="white" stroke-width="2.91946"/>
<line y1="-1.45973" x2="15.6845" y2="-1.45973" transform="matrix(0.642364 -0.7664 0.765689 0.643211 288.668 664.941)" stroke="white" stroke-width="2.91946"/>
<line y1="-1.45973" x2="15.6814" y2="-1.45973" transform="matrix(0.765689 -0.643211 0.642364 0.7664 322.488 663.961)" stroke="white" stroke-width="2.91946"/>
<line y1="-1.45973" x2="15.6785" y2="-1.45973" transform="matrix(0.865782 -0.500421 0.499579 0.866268 356.578 662.49)" stroke="white" stroke-width="2.91946"/>
<line y1="-1.45973" x2="15.6845" y2="-1.45973" transform="matrix(-0.642364 -0.7664 0.765689 -0.643211 21.6484 664.941)" stroke="white" stroke-width="2.91946"/>
<line y1="-1.45973" x2="15.6873" y2="-1.45973" transform="matrix(-0.499579 -0.866268 0.865782 -0.500421 55.2383 665.431)" stroke="white" stroke-width="2.91946"/>
<line y1="-1.45973" x2="15.6897" y2="-1.45973" transform="matrix(-0.341681 -0.939816 0.939569 -0.34236 88.6445 665.922)" stroke="white" stroke-width="2.91946"/>
<line y1="-1.45973" x2="15.6912" y2="-1.45973" transform="matrix(-0.173459 -0.984841 0.984774 -0.173837 121.93 666.412)" stroke="white" stroke-width="2.91946"/>
<line x1="153.697" y1="666.412" x2="153.697" y2="650.72" stroke="white" stroke-width="2.91946"/>
<line y1="-1.45973" x2="15.6912" y2="-1.45973" transform="matrix(0.173459 -0.984841 0.984774 0.173837 188.387 666.412)" stroke="white" stroke-width="2.91946"/>
<line y1="-1.45973" x2="15.6897" y2="-1.45973" transform="matrix(0.341681 -0.939816 0.939569 0.34236 186.402 693.383)" stroke="white" stroke-width="2.91946"/>
<line y1="-1.45973" x2="15.6873" y2="-1.45973" transform="matrix(0.499579 -0.866268 0.865782 0.500421 219.816 692.892)" stroke="white" stroke-width="2.91946"/>
<line y1="-1.45973" x2="15.6845" y2="-1.45973" transform="matrix(0.642364 -0.7664 0.765689 0.643211 253.402 692.401)" stroke="white" stroke-width="2.91946"/>
<line y1="-1.45973" x2="15.6814" y2="-1.45973" transform="matrix(0.765689 -0.643211 0.642364 0.7664 287.223 691.421)" stroke="white" stroke-width="2.91946"/>
<line y1="-1.45973" x2="15.6785" y2="-1.45973" transform="matrix(0.865782 -0.500421 0.499579 0.866268 321.312 689.949)" stroke="white" stroke-width="2.91946"/>
<line y1="-1.45973" x2="15.6762" y2="-1.45973" transform="matrix(0.939569 -0.34236 0.341681 0.939816 355.711 688.969)" stroke="white" stroke-width="2.91946"/>
<line y1="-1.45973" x2="15.6873" y2="-1.45973" transform="matrix(-0.499579 -0.866268 0.865782 -0.500421 19.9688 692.892)" stroke="white" stroke-width="2.91946"/>
<line y1="-1.45973" x2="15.6897" y2="-1.45973" transform="matrix(-0.341681 -0.939816 0.939569 -0.34236 53.3789 693.383)" stroke="white" stroke-width="2.91946"/>
<line y1="-1.45973" x2="15.6912" y2="-1.45973" transform="matrix(-0.173459 -0.984841 0.984774 -0.173837 86.668 693.873)" stroke="white" stroke-width="2.91946"/>
<line x1="118.431" y1="693.873" x2="118.431" y2="678.181" stroke="white" stroke-width="2.91946"/>
<line y1="-1.45973" x2="15.6912" y2="-1.45973" transform="matrix(0.173459 -0.984841 0.984774 0.173837 153.117 693.873)" stroke="white" stroke-width="2.91946"/>
<line y1="-1.45973" x2="15.6897" y2="-1.45973" transform="matrix(0.341681 -0.939816 0.939569 0.34236 151.141 720.843)" stroke="white" stroke-width="2.91946"/>
<line y1="-1.45973" x2="15.6873" y2="-1.45973" transform="matrix(0.499579 -0.866268 0.865782 0.500421 184.547 720.353)" stroke="white" stroke-width="2.91946"/>
<line y1="-1.45973" x2="15.6845" y2="-1.45973" transform="matrix(0.642364 -0.7664 0.765689 0.643211 218.133 719.862)" stroke="white" stroke-width="2.91946"/>
<line y1="-1.45973" x2="15.6814" y2="-1.45973" transform="matrix(0.765689 -0.643211 0.642364 0.7664 251.953 718.882)" stroke="white" stroke-width="2.91946"/>
<line y1="-1.45973" x2="15.6785" y2="-1.45973" transform="matrix(0.865782 -0.500421 0.499579 0.866268 286.047 717.41)" stroke="white" stroke-width="2.91946"/>
<line y1="-1.45973" x2="15.6762" y2="-1.45973" transform="matrix(0.939569 -0.34236 0.341681 0.939816 320.445 716.43)" stroke="white" stroke-width="2.91946"/>
<line y1="-1.45973" x2="15.6746" y2="-1.45973" transform="matrix(0.984774 -0.173837 0.173459 0.984841 355.184 714.958)" stroke="white" stroke-width="2.91946"/>
<line y1="-1.45973" x2="15.6897" y2="-1.45973" transform="matrix(-0.341681 -0.939816 0.939569 -0.34236 18.1094 720.843)" stroke="white" stroke-width="2.91946"/>
<line y1="-1.45973" x2="15.6912" y2="-1.45973" transform="matrix(-0.173459 -0.984841 0.984774 -0.173837 51.3984 721.333)" stroke="white" stroke-width="2.91946"/>
<line x1="83.1614" y1="721.333" x2="83.1614" y2="705.642" stroke="white" stroke-width="2.91946"/>
<line y1="-1.45973" x2="15.6912" y2="-1.45973" transform="matrix(0.173459 -0.984841 0.984774 0.173837 117.852 721.333)" stroke="white" stroke-width="2.91946"/>
<line y1="-1.45973" x2="15.6897" y2="-1.45973" transform="matrix(0.341681 -0.939816 0.939569 0.34236 115.871 748.304)" stroke="white" stroke-width="2.91946"/>
<line y1="-1.45973" x2="15.6873" y2="-1.45973" transform="matrix(0.499579 -0.866268 0.865782 0.500421 149.281 747.813)" stroke="white" stroke-width="2.91946"/>
<line y1="-1.45973" x2="15.6845" y2="-1.45973" transform="matrix(0.642364 -0.7664 0.765689 0.643211 182.871 747.323)" stroke="white" stroke-width="2.91946"/>
<line y1="-1.45973" x2="15.6814" y2="-1.45973" transform="matrix(0.765689 -0.643211 0.642364 0.7664 216.688 746.341)" stroke="white" stroke-width="2.91946"/>
<line y1="-1.45973" x2="15.6785" y2="-1.45973" transform="matrix(0.865782 -0.500421 0.499579 0.866268 250.777 744.872)" stroke="white" stroke-width="2.91946"/>
<line y1="-1.45973" x2="15.6762" y2="-1.45973" transform="matrix(0.939569 -0.34236 0.341681 0.939816 285.176 743.89)" stroke="white" stroke-width="2.91946"/>
<line y1="-1.45973" x2="15.6746" y2="-1.45973" transform="matrix(0.984774 -0.173837 0.173459 0.984841 319.914 742.419)" stroke="white" stroke-width="2.91946"/>
<line y1="-1.45973" x2="15.6912" y2="-1.45973" transform="matrix(-0.173459 -0.984841 0.984774 -0.173837 16.1328 748.793)" stroke="white" stroke-width="2.91946"/>
<line x1="47.8957" y1="748.793" x2="47.8957" y2="733.102" stroke="white" stroke-width="2.91946"/>
<line y1="-1.45973" x2="15.6912" y2="-1.45973" transform="matrix(0.173459 -0.984841 0.984774 0.173837 82.582 748.793)" stroke="white" stroke-width="2.91946"/>
<line x1="374.598" y1="742.407" x2="358.924" y2="742.407" stroke="white" stroke-width="2.91946"/>
<line y1="-1.45973" x2="15.6897" y2="-1.45973" transform="matrix(0.341681 -0.939816 0.939569 0.34236 80.6055 775.764)" stroke="white" stroke-width="2.91946"/>
<line y1="-1.45973" x2="15.6873" y2="-1.45973" transform="matrix(0.499579 -0.866268 0.865782 0.500421 114.012 775.274)" stroke="white" stroke-width="2.91946"/>
<line y1="-1.45973" x2="15.6845" y2="-1.45973" transform="matrix(0.642364 -0.7664 0.765689 0.643211 147.602 774.783)" stroke="white" stroke-width="2.91946"/>
<line y1="-1.45973" x2="15.6814" y2="-1.45973" transform="matrix(0.765689 -0.643211 0.642364 0.7664 181.418 773.803)" stroke="white" stroke-width="2.91946"/>
<line y1="-1.45973" x2="15.6785" y2="-1.45973" transform="matrix(0.865782 -0.500421 0.499579 0.866268 215.516 772.331)" stroke="white" stroke-width="2.91946"/>
<line y1="-1.45973" x2="15.6762" y2="-1.45973" transform="matrix(0.939569 -0.34236 0.341681 0.939816 249.914 771.351)" stroke="white" stroke-width="2.91946"/>
<line y1="-1.45973" x2="15.6746" y2="-1.45973" transform="matrix(0.984774 -0.173837 0.173459 0.984841 284.652 769.879)" stroke="white" stroke-width="2.91946"/>
<line x1="12.6301" y1="776.254" x2="12.6301" y2="760.563" stroke="white" stroke-width="2.91946"/>
<line y1="-1.45973" x2="15.6912" y2="-1.45973" transform="matrix(0.173459 -0.984841 0.984774 0.173837 47.3164 776.254)" stroke="white" stroke-width="2.91946"/>
<line x1="339.328" y1="769.869" x2="323.654" y2="769.869" stroke="white" stroke-width="2.91946"/>
<line y1="-1.45973" x2="15.6746" y2="-1.45973" transform="matrix(-0.984774 -0.173837 0.173459 -0.984841 374.422 769.879)" stroke="white" stroke-width="2.91946"/>
<line y1="-1.45973" x2="15.6897" y2="-1.45973" transform="matrix(0.341681 -0.939816 0.939569 0.34236 45.3359 803.225)" stroke="white" stroke-width="2.91946"/>
<line y1="-1.45973" x2="15.6873" y2="-1.45973" transform="matrix(0.499579 -0.866268 0.865782 0.500421 78.7461 802.734)" stroke="white" stroke-width="2.91946"/>
<line y1="-1.45973" x2="15.6845" y2="-1.45973" transform="matrix(0.642364 -0.7664 0.765689 0.643211 112.336 802.244)" stroke="white" stroke-width="2.91946"/>
<line y1="-1.45973" x2="15.6814" y2="-1.45973" transform="matrix(0.765689 -0.643211 0.642364 0.7664 146.156 801.264)" stroke="white" stroke-width="2.91946"/>
<line y1="-1.45973" x2="15.6785" y2="-1.45973" transform="matrix(0.865782 -0.500421 0.499579 0.866268 180.246 799.792)" stroke="white" stroke-width="2.91946"/>
<line y1="-1.45973" x2="15.6762" y2="-1.45973" transform="matrix(0.939569 -0.34236 0.341681 0.939816 214.645 798.812)" stroke="white" stroke-width="2.91946"/>
<line y1="-1.45973" x2="15.6746" y2="-1.45973" transform="matrix(0.984774 -0.173837 0.173459 0.984841 249.383 797.34)" stroke="white" stroke-width="2.91946"/>
<line y1="-1.45973" x2="15.6912" y2="-1.45973" transform="matrix(0.173459 -0.984841 0.984774 0.173837 12.0469 803.715)" stroke="white" stroke-width="2.91946"/>
<line x1="304.062" y1="797.328" x2="288.388" y2="797.328" stroke="white" stroke-width="2.91946"/>
<line y1="-1.45973" x2="15.6746" y2="-1.45973" transform="matrix(-0.984774 -0.173837 0.173459 -0.984841 339.152 797.34)" stroke="white" stroke-width="2.91946"/>
<line y1="-1.45973" x2="15.6762" y2="-1.45973" transform="matrix(-0.939569 -0.34236 0.341681 -0.939816 373.891 798.812)" stroke="white" stroke-width="2.91946"/>
<line y1="-1.45973" x2="15.6897" y2="-1.45973" transform="matrix(0.341681 -0.939816 0.939569 0.34236 10.0703 830.686)" stroke="white" stroke-width="2.91946"/>
<line y1="-1.45973" x2="15.6873" y2="-1.45973" transform="matrix(0.499579 -0.866268 0.865782 0.500421 43.4766 830.195)" stroke="white" stroke-width="2.91946"/>
<line y1="-1.45973" x2="15.6845" y2="-1.45973" transform="matrix(0.642364 -0.7664 0.765689 0.643211 77.0664 829.704)" stroke="white" stroke-width="2.91946"/>
<line y1="-1.45973" x2="15.6814" y2="-1.45973" transform="matrix(0.765689 -0.643211 0.642364 0.7664 110.887 828.723)" stroke="white" stroke-width="2.91946"/>
<line y1="-1.45973" x2="15.6785" y2="-1.45973" transform="matrix(0.865782 -0.500421 0.499579 0.866268 144.98 827.252)" stroke="white" stroke-width="2.91946"/>
<line y1="-1.45973" x2="15.6762" y2="-1.45973" transform="matrix(0.939569 -0.34236 0.341681 0.939816 179.379 826.271)" stroke="white" stroke-width="2.91946"/>
<line y1="-1.45973" x2="15.6746" y2="-1.45973" transform="matrix(0.984774 -0.173837 0.173459 0.984841 214.117 824.801)" stroke="white" stroke-width="2.91946"/>
<line y1="-1.45973" x2="15.6785" y2="-1.45973" transform="matrix(-0.865782 -0.500421 0.499579 -0.866268 373.023 827.252)" stroke="white" stroke-width="2.91946"/>
<line x1="268.797" y1="824.789" x2="253.123" y2="824.789" stroke="white" stroke-width="2.91946"/>
<line y1="-1.45973" x2="15.6746" y2="-1.45973" transform="matrix(-0.984774 -0.173837 0.173459 -0.984841 303.887 824.801)" stroke="white" stroke-width="2.91946"/>
<line y1="-1.45973" x2="15.6762" y2="-1.45973" transform="matrix(-0.939569 -0.34236 0.341681 -0.939816 338.621 826.271)" stroke="white" stroke-width="2.91946"/>
<line y1="-1.45973" x2="15.6873" y2="-1.45973" transform="matrix(0.499579 -0.866268 0.865782 0.500421 8.21484 857.656)" stroke="white" stroke-width="2.91946"/>
<line y1="-1.45973" x2="15.6845" y2="-1.45973" transform="matrix(0.642364 -0.7664 0.765689 0.643211 41.8008 857.165)" stroke="white" stroke-width="2.91946"/>
<line y1="-1.45973" x2="15.6814" y2="-1.45973" transform="matrix(0.765689 -0.643211 0.642364 0.7664 75.6211 856.185)" stroke="white" stroke-width="2.91946"/>
<line y1="-1.45973" x2="15.6785" y2="-1.45973" transform="matrix(0.865782 -0.500421 0.499579 0.866268 109.711 854.713)" stroke="white" stroke-width="2.91946"/>
<line y1="-1.45973" x2="15.6762" y2="-1.45973" transform="matrix(0.939569 -0.34236 0.341681 0.939816 144.109 853.732)" stroke="white" stroke-width="2.91946"/>
<line y1="-1.45973" x2="15.6746" y2="-1.45973" transform="matrix(0.984774 -0.173837 0.173459 0.984841 178.848 852.261)" stroke="white" stroke-width="2.91946"/>
<line y1="-1.45973" x2="15.6785" y2="-1.45973" transform="matrix(-0.865782 -0.500421 0.499579 -0.866268 337.754 854.713)" stroke="white" stroke-width="2.91946"/>
<line y1="-1.45973" x2="15.6814" y2="-1.45973" transform="matrix(-0.765689 -0.643211 0.642364 -0.7664 371.848 856.185)" stroke="white" stroke-width="2.91946"/>
<line x1="233.531" y1="852.249" x2="217.857" y2="852.249" stroke="white" stroke-width="2.91946"/>
<line y1="-1.45973" x2="15.6746" y2="-1.45973" transform="matrix(-0.984774 -0.173837 0.173459 -0.984841 268.617 852.261)" stroke="white" stroke-width="2.91946"/>
<line y1="-1.45973" x2="15.6762" y2="-1.45973" transform="matrix(-0.939569 -0.34236 0.341681 -0.939816 303.355 853.732)" stroke="white" stroke-width="2.91946"/>
<line y1="-1.45973" x2="15.6845" y2="-1.45973" transform="matrix(0.642364 -0.7664 0.765689 0.643211 6.53125 884.626)" stroke="white" stroke-width="2.91946"/>
<line y1="-1.45973" x2="15.6814" y2="-1.45973" transform="matrix(0.765689 -0.643211 0.642364 0.7664 40.3516 883.644)" stroke="white" stroke-width="2.91946"/>
<line y1="-1.45973" x2="15.6785" y2="-1.45973" transform="matrix(0.865782 -0.500421 0.499579 0.866268 74.4453 882.174)" stroke="white" stroke-width="2.91946"/>
<line y1="-1.45973" x2="15.6762" y2="-1.45973" transform="matrix(0.939569 -0.34236 0.341681 0.939816 108.848 881.193)" stroke="white" stroke-width="2.91946"/>
<line y1="-1.45973" x2="15.6746" y2="-1.45973" transform="matrix(0.984774 -0.173837 0.173459 0.984841 143.586 879.722)" stroke="white" stroke-width="2.91946"/>
<line y1="-1.45973" x2="15.6785" y2="-1.45973" transform="matrix(-0.865782 -0.500421 0.499579 -0.866268 302.492 882.174)" stroke="white" stroke-width="2.91946"/>
<line y1="-1.45973" x2="15.6814" y2="-1.45973" transform="matrix(-0.765689 -0.643211 0.642364 -0.7664 336.578 883.644)" stroke="white" stroke-width="2.91946"/>
<line y1="-1.45973" x2="15.6845" y2="-1.45973" transform="matrix(-0.642364 -0.7664 0.765689 -0.643211 370.398 884.626)" stroke="white" stroke-width="2.91946"/>
<line x1="198.266" y1="879.71" x2="182.592" y2="879.71" stroke="white" stroke-width="2.91946"/>
<line y1="-1.45973" x2="15.6746" y2="-1.45973" transform="matrix(-0.984774 -0.173837 0.173459 -0.984841 233.352 879.722)" stroke="white" stroke-width="2.91946"/>
<line y1="-1.45973" x2="15.6762" y2="-1.45973" transform="matrix(-0.939569 -0.34236 0.341681 -0.939816 268.09 881.193)" stroke="white" stroke-width="2.91946"/>
<line y1="-1.45973" x2="15.6814" y2="-1.45973" transform="matrix(0.765689 -0.643211 0.642364 0.7664 5.08594 911.105)" stroke="white" stroke-width="2.91946"/>
<line y1="-1.45973" x2="15.6785" y2="-1.45973" transform="matrix(0.865782 -0.500421 0.499579 0.866268 39.1758 909.634)" stroke="white" stroke-width="2.91946"/>
<line y1="-1.45973" x2="15.6762" y2="-1.45973" transform="matrix(0.939569 -0.34236 0.341681 0.939816 73.5781 908.653)" stroke="white" stroke-width="2.91946"/>
<line y1="-1.45973" x2="15.6746" y2="-1.45973" transform="matrix(0.984774 -0.173837 0.173459 0.984841 108.316 907.182)" stroke="white" stroke-width="2.91946"/>
<line y1="-1.45973" x2="15.6785" y2="-1.45973" transform="matrix(-0.865782 -0.500421 0.499579 -0.866268 267.223 909.634)" stroke="white" stroke-width="2.91946"/>
<line y1="-1.45973" x2="15.6814" y2="-1.45973" transform="matrix(-0.765689 -0.643211 0.642364 -0.7664 301.316 911.105)" stroke="white" stroke-width="2.91946"/>
<line y1="-1.45973" x2="15.6845" y2="-1.45973" transform="matrix(-0.642364 -0.7664 0.765689 -0.643211 335.129 912.086)" stroke="white" stroke-width="2.91946"/>
<line y1="-1.45973" x2="15.6873" y2="-1.45973" transform="matrix(-0.499579 -0.866268 0.865782 -0.500421 368.723 912.577)" stroke="white" stroke-width="2.91946"/>
<line x1="162.996" y1="907.171" x2="147.322" y2="907.171" stroke="white" stroke-width="2.91946"/>
<line y1="-1.45973" x2="15.6746" y2="-1.45973" transform="matrix(-0.984774 -0.173837 0.173459 -0.984841 198.082 907.182)" stroke="white" stroke-width="2.91946"/>
<line y1="-1.45973" x2="15.6762" y2="-1.45973" transform="matrix(-0.939569 -0.34236 0.341681 -0.939816 232.82 908.653)" stroke="white" stroke-width="2.91946"/>
<line y1="-1.45973" x2="15.6785" y2="-1.45973" transform="matrix(0.865782 -0.500421 0.499579 0.866268 3.91406 937.095)" stroke="white" stroke-width="2.91946"/>
<line y1="-1.45973" x2="15.6762" y2="-1.45973" transform="matrix(0.939569 -0.34236 0.341681 0.939816 38.3125 936.114)" stroke="white" stroke-width="2.91946"/>
<line y1="-1.45973" x2="15.6746" y2="-1.45973" transform="matrix(0.984774 -0.173837 0.173459 0.984841 73.0508 934.643)" stroke="white" stroke-width="2.91946"/>
<line y1="-1.45973" x2="15.6785" y2="-1.45973" transform="matrix(-0.865782 -0.500421 0.499579 -0.866268 231.957 937.095)" stroke="white" stroke-width="2.91946"/>
<line y1="-1.45973" x2="15.6814" y2="-1.45973" transform="matrix(-0.765689 -0.643211 0.642364 -0.7664 266.047 938.566)" stroke="white" stroke-width="2.91946"/>
<line y1="-1.45973" x2="15.6845" y2="-1.45973" transform="matrix(-0.642364 -0.7664 0.765689 -0.643211 299.867 939.547)" stroke="white" stroke-width="2.91946"/>
<line y1="-1.45973" x2="15.6873" y2="-1.45973" transform="matrix(-0.499579 -0.866268 0.865782 -0.500421 333.453 940.036)" stroke="white" stroke-width="2.91946"/>
<line y1="-1.45973" x2="15.6897" y2="-1.45973" transform="matrix(-0.341681 -0.939816 0.939569 -0.34236 366.863 940.527)" stroke="white" stroke-width="2.91946"/>
<line x1="127.73" y1="934.631" x2="112.056" y2="934.631" stroke="white" stroke-width="2.91946"/>
<line y1="-1.45973" x2="15.6746" y2="-1.45973" transform="matrix(-0.984774 -0.173837 0.173459 -0.984841 162.82 934.643)" stroke="white" stroke-width="2.91946"/>
<line y1="-1.45973" x2="15.6762" y2="-1.45973" transform="matrix(-0.939569 -0.34236 0.341681 -0.939816 197.559 936.114)" stroke="white" stroke-width="2.91946"/>
<line y1="-1.45973" x2="15.6762" y2="-1.45973" transform="matrix(0.939569 -0.34236 0.341681 0.939816 3.04297 963.574)" stroke="white" stroke-width="2.91946"/>
<line y1="-1.45973" x2="15.6746" y2="-1.45973" transform="matrix(0.984774 -0.173837 0.173459 0.984841 37.7812 962.104)" stroke="white" stroke-width="2.91946"/>
<line y1="-1.45973" x2="15.6785" y2="-1.45973" transform="matrix(-0.865782 -0.500421 0.499579 -0.866268 196.688 964.556)" stroke="white" stroke-width="2.91946"/>
<line y1="-1.45973" x2="15.6814" y2="-1.45973" transform="matrix(-0.765689 -0.643211 0.642364 -0.7664 230.781 966.026)" stroke="white" stroke-width="2.91946"/>
<line y1="-1.45973" x2="15.6845" y2="-1.45973" transform="matrix(-0.642364 -0.7664 0.765689 -0.643211 264.602 967.006)" stroke="white" stroke-width="2.91946"/>
<line y1="-1.45973" x2="15.6873" y2="-1.45973" transform="matrix(-0.499579 -0.866268 0.865782 -0.500421 298.188 967.498)" stroke="white" stroke-width="2.91946"/>
<line y1="-1.45973" x2="15.6897" y2="-1.45973" transform="matrix(-0.341681 -0.939816 0.939569 -0.34236 331.594 967.988)" stroke="white" stroke-width="2.91946"/>
<line y1="-1.45973" x2="15.6912" y2="-1.45973" transform="matrix(-0.173459 -0.984841 0.984774 -0.173837 364.883 968.478)" stroke="white" stroke-width="2.91946"/>
<line y1="-1.45973" x2="15.6746" y2="-1.45973" transform="matrix(-0.984774 -0.173837 0.173459 -0.984841 127.551 962.104)" stroke="white" stroke-width="2.91946"/>
<line y1="-1.45973" x2="15.6762" y2="-1.45973" transform="matrix(-0.939569 -0.34236 0.341681 -0.939816 162.289 963.574)" stroke="white" stroke-width="2.91946"/>
<line y1="-1.45973" x2="15.6897" y2="-1.45973" transform="matrix(-0.341681 0.939816 -0.939569 -0.34236 463.062 477.539)" stroke="white" stroke-width="2.91946"/>
<line y1="-1.45973" x2="15.6873" y2="-1.45973" transform="matrix(-0.499579 0.866268 -0.865782 -0.500421 429.652 478.029)" stroke="white" stroke-width="2.91946"/>
<line y1="-1.45973" x2="15.6845" y2="-1.45973" transform="matrix(-0.642364 0.7664 -0.765689 -0.643211 396.062 478.52)" stroke="white" stroke-width="2.91946"/>
<line y1="-1.45973" x2="15.6814" y2="-1.45973" transform="matrix(-0.765689 0.643211 -0.642364 -0.7664 362.25 479.5)" stroke="white" stroke-width="2.91946"/>
<line y1="-1.45973" x2="15.6814" y2="-1.45973" transform="matrix(0.765689 0.643211 -0.642364 0.7664 696.906 479.5)" stroke="white" stroke-width="2.91946"/>
<line y1="-1.45973" x2="15.6845" y2="-1.45973" transform="matrix(0.642364 0.7664 -0.765689 0.643211 663.086 478.52)" stroke="white" stroke-width="2.91946"/>
<line y1="-1.45973" x2="15.6873" y2="-1.45973" transform="matrix(0.499579 0.866268 -0.865782 0.500421 629.5 478.029)" stroke="white" stroke-width="2.91946"/>
<line y1="-1.45973" x2="15.6897" y2="-1.45973" transform="matrix(0.341681 0.939816 -0.939569 0.34236 596.09 477.539)" stroke="white" stroke-width="2.91946"/>
<line y1="-1.45973" x2="15.6912" y2="-1.45973" transform="matrix(0.173459 0.984841 -0.984774 0.173837 562.801 477.048)" stroke="white" stroke-width="2.91946"/>
<line x1="531.034" y1="477.048" x2="531.034" y2="492.74" stroke="white" stroke-width="2.91946"/>
<line y1="-1.45973" x2="15.6912" y2="-1.45973" transform="matrix(-0.173459 0.984841 -0.984774 -0.173837 496.352 477.048)" stroke="white" stroke-width="2.91946"/>
<line y1="-1.45973" x2="15.6897" y2="-1.45973" transform="matrix(-0.341681 0.939816 -0.939569 -0.34236 498.328 450.078)" stroke="white" stroke-width="2.91946"/>
<line y1="-1.45973" x2="15.6873" y2="-1.45973" transform="matrix(-0.499579 0.866268 -0.865782 -0.500421 464.922 450.569)" stroke="white" stroke-width="2.91946"/>
<line y1="-1.45973" x2="15.6845" y2="-1.45973" transform="matrix(-0.642364 0.7664 -0.765689 -0.643211 431.332 451.059)" stroke="white" stroke-width="2.91946"/>
<line y1="-1.45973" x2="15.6814" y2="-1.45973" transform="matrix(-0.765689 0.643211 -0.642364 -0.7664 397.512 452.039)" stroke="white" stroke-width="2.91946"/>
<line y1="-1.45973" x2="15.6785" y2="-1.45973" transform="matrix(-0.865782 0.500421 -0.499579 -0.866268 363.422 453.51)" stroke="white" stroke-width="2.91946"/>
<line y1="-1.45973" x2="15.6845" y2="-1.45973" transform="matrix(0.642364 0.7664 -0.765689 0.643211 698.352 451.059)" stroke="white" stroke-width="2.91946"/>
<line y1="-1.45973" x2="15.6873" y2="-1.45973" transform="matrix(0.499579 0.866268 -0.865782 0.500421 664.762 450.569)" stroke="white" stroke-width="2.91946"/>
<line y1="-1.45973" x2="15.6897" y2="-1.45973" transform="matrix(0.341681 0.939816 -0.939569 0.34236 631.355 450.078)" stroke="white" stroke-width="2.91946"/>
<line y1="-1.45973" x2="15.6912" y2="-1.45973" transform="matrix(0.173459 0.984841 -0.984774 0.173837 598.07 449.588)" stroke="white" stroke-width="2.91946"/>
<line x1="566.303" y1="449.588" x2="566.303" y2="465.28" stroke="white" stroke-width="2.91946"/>
<line y1="-1.45973" x2="15.6912" y2="-1.45973" transform="matrix(-0.173459 0.984841 -0.984774 -0.173837 531.613 449.588)" stroke="white" stroke-width="2.91946"/>
<line y1="-1.45973" x2="15.6897" y2="-1.45973" transform="matrix(-0.341681 0.939816 -0.939569 -0.34236 533.598 422.617)" stroke="white" stroke-width="2.91946"/>
<line y1="-1.45973" x2="15.6873" y2="-1.45973" transform="matrix(-0.499579 0.866268 -0.865782 -0.500421 500.184 423.108)" stroke="white" stroke-width="2.91946"/>
<line y1="-1.45973" x2="15.6845" y2="-1.45973" transform="matrix(-0.642364 0.7664 -0.765689 -0.643211 466.598 423.599)" stroke="white" stroke-width="2.91946"/>
<line y1="-1.45973" x2="15.6814" y2="-1.45973" transform="matrix(-0.765689 0.643211 -0.642364 -0.7664 432.777 424.579)" stroke="white" stroke-width="2.91946"/>
<line y1="-1.45973" x2="15.6785" y2="-1.45973" transform="matrix(-0.865782 0.500421 -0.499579 -0.866268 398.688 426.051)" stroke="white" stroke-width="2.91946"/>
<line y1="-1.45973" x2="15.6762" y2="-1.45973" transform="matrix(-0.939569 0.34236 -0.341681 -0.939816 364.289 427.031)" stroke="white" stroke-width="2.91946"/>
<line y1="-1.45973" x2="15.6873" y2="-1.45973" transform="matrix(0.499579 0.866268 -0.865782 0.500421 700.031 423.108)" stroke="white" stroke-width="2.91946"/>
<line y1="-1.45973" x2="15.6897" y2="-1.45973" transform="matrix(0.341681 0.939816 -0.939569 0.34236 666.621 422.617)" stroke="white" stroke-width="2.91946"/>
<line y1="-1.45973" x2="15.6912" y2="-1.45973" transform="matrix(0.173459 0.984841 -0.984774 0.173837 633.332 422.127)" stroke="white" stroke-width="2.91946"/>
<line x1="601.569" y1="422.127" x2="601.569" y2="437.819" stroke="white" stroke-width="2.91946"/>
<line y1="-1.45973" x2="15.6912" y2="-1.45973" transform="matrix(-0.173459 0.984841 -0.984774 -0.173837 566.883 422.127)" stroke="white" stroke-width="2.91946"/>
<line y1="-1.45973" x2="15.6897" y2="-1.45973" transform="matrix(-0.341681 0.939816 -0.939569 -0.34236 568.859 395.157)" stroke="white" stroke-width="2.91946"/>
<line y1="-1.45973" x2="15.6873" y2="-1.45973" transform="matrix(-0.499579 0.866268 -0.865782 -0.500421 535.453 395.647)" stroke="white" stroke-width="2.91946"/>
<line y1="-1.45973" x2="15.6845" y2="-1.45973" transform="matrix(-0.642364 0.7664 -0.765689 -0.643211 501.867 396.138)" stroke="white" stroke-width="2.91946"/>
<line y1="-1.45973" x2="15.6814" y2="-1.45973" transform="matrix(-0.765689 0.643211 -0.642364 -0.7664 468.047 397.118)" stroke="white" stroke-width="2.91946"/>
<line y1="-1.45973" x2="15.6785" y2="-1.45973" transform="matrix(-0.865782 0.500421 -0.499579 -0.866268 433.953 398.59)" stroke="white" stroke-width="2.91946"/>
<line y1="-1.45973" x2="15.6762" y2="-1.45973" transform="matrix(-0.939569 0.34236 -0.341681 -0.939816 399.555 399.57)" stroke="white" stroke-width="2.91946"/>
<line y1="-1.45973" x2="15.6746" y2="-1.45973" transform="matrix(-0.984774 0.173837 -0.173459 -0.984841 364.816 401.042)" stroke="white" stroke-width="2.91946"/>
<line y1="-1.45973" x2="15.6897" y2="-1.45973" transform="matrix(0.341681 0.939816 -0.939569 0.34236 701.891 395.157)" stroke="white" stroke-width="2.91946"/>
<line y1="-1.45973" x2="15.6912" y2="-1.45973" transform="matrix(0.173459 0.984841 -0.984774 0.173837 668.602 394.667)" stroke="white" stroke-width="2.91946"/>
<line x1="636.839" y1="394.667" x2="636.839" y2="410.358" stroke="white" stroke-width="2.91946"/>
<line y1="-1.45973" x2="15.6912" y2="-1.45973" transform="matrix(-0.173459 0.984841 -0.984774 -0.173837 602.148 394.667)" stroke="white" stroke-width="2.91946"/>
<line y1="-1.45973" x2="15.6897" y2="-1.45973" transform="matrix(-0.341681 0.939816 -0.939569 -0.34236 604.129 367.696)" stroke="white" stroke-width="2.91946"/>
<line y1="-1.45973" x2="15.6873" y2="-1.45973" transform="matrix(-0.499579 0.866268 -0.865782 -0.500421 570.719 368.187)" stroke="white" stroke-width="2.91946"/>
<line y1="-1.45973" x2="15.6845" y2="-1.45973" transform="matrix(-0.642364 0.7664 -0.765689 -0.643211 537.129 368.677)" stroke="white" stroke-width="2.91946"/>
<line y1="-1.45973" x2="15.6814" y2="-1.45973" transform="matrix(-0.765689 0.643211 -0.642364 -0.7664 503.312 369.659)" stroke="white" stroke-width="2.91946"/>
<line y1="-1.45973" x2="15.6785" y2="-1.45973" transform="matrix(-0.865782 0.500421 -0.499579 -0.866268 469.223 371.128)" stroke="white" stroke-width="2.91946"/>
<line y1="-1.45973" x2="15.6762" y2="-1.45973" transform="matrix(-0.939569 0.34236 -0.341681 -0.939816 434.824 372.11)" stroke="white" stroke-width="2.91946"/>
<line y1="-1.45973" x2="15.6746" y2="-1.45973" transform="matrix(-0.984774 0.173837 -0.173459 -0.984841 400.086 373.581)" stroke="white" stroke-width="2.91946"/>
<line y1="-1.45973" x2="15.6912" y2="-1.45973" transform="matrix(0.173459 0.984841 -0.984774 0.173837 703.867 367.207)" stroke="white" stroke-width="2.91946"/>
<line x1="672.104" y1="367.207" x2="672.104" y2="382.898" stroke="white" stroke-width="2.91946"/>
<line y1="-1.45973" x2="15.6912" y2="-1.45973" transform="matrix(-0.173459 0.984841 -0.984774 -0.173837 637.418 367.207)" stroke="white" stroke-width="2.91946"/>
<line x1="345.402" y1="373.593" x2="361.076" y2="373.593" stroke="white" stroke-width="2.91946"/>
<line y1="-1.45973" x2="15.6897" y2="-1.45973" transform="matrix(-0.341681 0.939816 -0.939569 -0.34236 639.395 340.236)" stroke="white" stroke-width="2.91946"/>
<line y1="-1.45973" x2="15.6873" y2="-1.45973" transform="matrix(-0.499579 0.866268 -0.865782 -0.500421 605.988 340.726)" stroke="white" stroke-width="2.91946"/>
<line y1="-1.45973" x2="15.6845" y2="-1.45973" transform="matrix(-0.642364 0.7664 -0.765689 -0.643211 572.398 341.217)" stroke="white" stroke-width="2.91946"/>
<line y1="-1.45973" x2="15.6814" y2="-1.45973" transform="matrix(-0.765689 0.643211 -0.642364 -0.7664 538.582 342.197)" stroke="white" stroke-width="2.91946"/>
<line y1="-1.45973" x2="15.6785" y2="-1.45973" transform="matrix(-0.865782 0.500421 -0.499579 -0.866268 504.484 343.669)" stroke="white" stroke-width="2.91946"/>
<line y1="-1.45973" x2="15.6762" y2="-1.45973" transform="matrix(-0.939569 0.34236 -0.341681 -0.939816 470.086 344.649)" stroke="white" stroke-width="2.91946"/>
<line y1="-1.45973" x2="15.6746" y2="-1.45973" transform="matrix(-0.984774 0.173837 -0.173459 -0.984841 435.348 346.121)" stroke="white" stroke-width="2.91946"/>
<line x1="707.37" y1="339.746" x2="707.37" y2="355.437" stroke="white" stroke-width="2.91946"/>
<line y1="-1.45973" x2="15.6912" y2="-1.45973" transform="matrix(-0.173459 0.984841 -0.984774 -0.173837 672.684 339.746)" stroke="white" stroke-width="2.91946"/>
<line x1="380.672" y1="346.131" x2="396.346" y2="346.131" stroke="white" stroke-width="2.91946"/>
<line y1="-1.45973" x2="15.6746" y2="-1.45973" transform="matrix(0.984774 0.173837 -0.173459 0.984841 345.578 346.121)" stroke="white" stroke-width="2.91946"/>
<line y1="-1.45973" x2="15.6897" y2="-1.45973" transform="matrix(-0.341681 0.939816 -0.939569 -0.34236 674.664 312.775)" stroke="white" stroke-width="2.91946"/>
<line y1="-1.45973" x2="15.6873" y2="-1.45973" transform="matrix(-0.499579 0.866268 -0.865782 -0.500421 641.254 313.266)" stroke="white" stroke-width="2.91946"/>
<line y1="-1.45973" x2="15.6845" y2="-1.45973" transform="matrix(-0.642364 0.7664 -0.765689 -0.643211 607.664 313.756)" stroke="white" stroke-width="2.91946"/>
<line y1="-1.45973" x2="15.6814" y2="-1.45973" transform="matrix(-0.765689 0.643211 -0.642364 -0.7664 573.844 314.736)" stroke="white" stroke-width="2.91946"/>
<line y1="-1.45973" x2="15.6785" y2="-1.45973" transform="matrix(-0.865782 0.500421 -0.499579 -0.866268 539.754 316.208)" stroke="white" stroke-width="2.91946"/>
<line y1="-1.45973" x2="15.6762" y2="-1.45973" transform="matrix(-0.939569 0.34236 -0.341681 -0.939816 505.355 317.188)" stroke="white" stroke-width="2.91946"/>
<line y1="-1.45973" x2="15.6746" y2="-1.45973" transform="matrix(-0.984774 0.173837 -0.173459 -0.984841 470.617 318.66)" stroke="white" stroke-width="2.91946"/>
<line y1="-1.45973" x2="15.6912" y2="-1.45973" transform="matrix(-0.173459 0.984841 -0.984774 -0.173837 707.953 312.285)" stroke="white" stroke-width="2.91946"/>
<line x1="415.938" y1="318.672" x2="431.612" y2="318.672" stroke="white" stroke-width="2.91946"/>
<line y1="-1.45973" x2="15.6746" y2="-1.45973" transform="matrix(0.984774 0.173837 -0.173459 0.984841 380.848 318.66)" stroke="white" stroke-width="2.91946"/>
<line y1="-1.45973" x2="15.6762" y2="-1.45973" transform="matrix(0.939569 0.34236 -0.341681 0.939816 346.109 317.188)" stroke="white" stroke-width="2.91946"/>
<line y1="-1.45973" x2="15.6897" y2="-1.45973" transform="matrix(-0.341681 0.939816 -0.939569 -0.34236 709.93 285.314)" stroke="white" stroke-width="2.91946"/>
<line y1="-1.45973" x2="15.6873" y2="-1.45973" transform="matrix(-0.499579 0.866268 -0.865782 -0.500421 676.523 285.805)" stroke="white" stroke-width="2.91946"/>
<line y1="-1.45973" x2="15.6845" y2="-1.45973" transform="matrix(-0.642364 0.7664 -0.765689 -0.643211 642.934 286.296)" stroke="white" stroke-width="2.91946"/>
<line y1="-1.45973" x2="15.6814" y2="-1.45973" transform="matrix(-0.765689 0.643211 -0.642364 -0.7664 609.113 287.277)" stroke="white" stroke-width="2.91946"/>
<line y1="-1.45973" x2="15.6785" y2="-1.45973" transform="matrix(-0.865782 0.500421 -0.499579 -0.866268 575.02 288.748)" stroke="white" stroke-width="2.91946"/>
<line y1="-1.45973" x2="15.6762" y2="-1.45973" transform="matrix(-0.939569 0.34236 -0.341681 -0.939816 540.621 289.729)" stroke="white" stroke-width="2.91946"/>
<line y1="-1.45973" x2="15.6746" y2="-1.45973" transform="matrix(-0.984774 0.173837 -0.173459 -0.984841 505.883 291.199)" stroke="white" stroke-width="2.91946"/>
<line y1="-1.45973" x2="15.6785" y2="-1.45973" transform="matrix(0.865782 0.500421 -0.499579 0.866268 346.977 288.748)" stroke="white" stroke-width="2.91946"/>
<line x1="451.203" y1="291.211" x2="466.877" y2="291.211" stroke="white" stroke-width="2.91946"/>
<line y1="-1.45973" x2="15.6746" y2="-1.45973" transform="matrix(0.984774 0.173837 -0.173459 0.984841 416.113 291.199)" stroke="white" stroke-width="2.91946"/>
<line y1="-1.45973" x2="15.6762" y2="-1.45973" transform="matrix(0.939569 0.34236 -0.341681 0.939816 381.379 289.729)" stroke="white" stroke-width="2.91946"/>
<line y1="-1.45973" x2="15.6873" y2="-1.45973" transform="matrix(-0.499579 0.866268 -0.865782 -0.500421 711.785 258.344)" stroke="white" stroke-width="2.91946"/>
<line y1="-1.45973" x2="15.6845" y2="-1.45973" transform="matrix(-0.642364 0.7664 -0.765689 -0.643211 678.199 258.835)" stroke="white" stroke-width="2.91946"/>
<line y1="-1.45973" x2="15.6814" y2="-1.45973" transform="matrix(-0.765689 0.643211 -0.642364 -0.7664 644.379 259.815)" stroke="white" stroke-width="2.91946"/>
<line y1="-1.45973" x2="15.6785" y2="-1.45973" transform="matrix(-0.865782 0.500421 -0.499579 -0.866268 610.289 261.287)" stroke="white" stroke-width="2.91946"/>
<line y1="-1.45973" x2="15.6762" y2="-1.45973" transform="matrix(-0.939569 0.34236 -0.341681 -0.939816 575.891 262.268)" stroke="white" stroke-width="2.91946"/>
<line y1="-1.45973" x2="15.6746" y2="-1.45973" transform="matrix(-0.984774 0.173837 -0.173459 -0.984841 541.152 263.739)" stroke="white" stroke-width="2.91946"/>
<line y1="-1.45973" x2="15.6785" y2="-1.45973" transform="matrix(0.865782 0.500421 -0.499579 0.866268 382.246 261.287)" stroke="white" stroke-width="2.91946"/>
<line y1="-1.45973" x2="15.6814" y2="-1.45973" transform="matrix(0.765689 0.643211 -0.642364 0.7664 348.152 259.815)" stroke="white" stroke-width="2.91946"/>
<line x1="486.469" y1="263.751" x2="502.143" y2="263.751" stroke="white" stroke-width="2.91946"/>
<line y1="-1.45973" x2="15.6746" y2="-1.45973" transform="matrix(0.984774 0.173837 -0.173459 0.984841 451.383 263.739)" stroke="white" stroke-width="2.91946"/>
<line y1="-1.45973" x2="15.6762" y2="-1.45973" transform="matrix(0.939569 0.34236 -0.341681 0.939816 416.645 262.268)" stroke="white" stroke-width="2.91946"/>
<line y1="-1.45973" x2="15.6845" y2="-1.45973" transform="matrix(-0.642364 0.7664 -0.765689 -0.643211 713.469 231.374)" stroke="white" stroke-width="2.91946"/>
<line y1="-1.45973" x2="15.6814" y2="-1.45973" transform="matrix(-0.765689 0.643211 -0.642364 -0.7664 679.648 232.356)" stroke="white" stroke-width="2.91946"/>
<line y1="-1.45973" x2="15.6785" y2="-1.45973" transform="matrix(-0.865782 0.500421 -0.499579 -0.866268 645.555 233.826)" stroke="white" stroke-width="2.91946"/>
<line y1="-1.45973" x2="15.6762" y2="-1.45973" transform="matrix(-0.939569 0.34236 -0.341681 -0.939816 611.152 234.807)" stroke="white" stroke-width="2.91946"/>
<line y1="-1.45973" x2="15.6746" y2="-1.45973" transform="matrix(-0.984774 0.173837 -0.173459 -0.984841 576.414 236.278)" stroke="white" stroke-width="2.91946"/>
<line y1="-1.45973" x2="15.6785" y2="-1.45973" transform="matrix(0.865782 0.500421 -0.499579 0.866268 417.508 233.826)" stroke="white" stroke-width="2.91946"/>
<line y1="-1.45973" x2="15.6814" y2="-1.45973" transform="matrix(0.765689 0.643211 -0.642364 0.7664 383.422 232.356)" stroke="white" stroke-width="2.91946"/>
<line y1="-1.45973" x2="15.6845" y2="-1.45973" transform="matrix(0.642364 0.7664 -0.765689 0.643211 349.602 231.374)" stroke="white" stroke-width="2.91946"/>
<line x1="521.734" y1="236.29" x2="537.409" y2="236.29" stroke="white" stroke-width="2.91946"/>
<line y1="-1.45973" x2="15.6746" y2="-1.45973" transform="matrix(0.984774 0.173837 -0.173459 0.984841 486.648 236.278)" stroke="white" stroke-width="2.91946"/>
<line y1="-1.45973" x2="15.6762" y2="-1.45973" transform="matrix(0.939569 0.34236 -0.341681 0.939816 451.91 234.807)" stroke="white" stroke-width="2.91946"/>
<line y1="-1.45973" x2="15.6814" y2="-1.45973" transform="matrix(-0.765689 0.643211 -0.642364 -0.7664 714.914 204.895)" stroke="white" stroke-width="2.91946"/>
<line y1="-1.45973" x2="15.6785" y2="-1.45973" transform="matrix(-0.865782 0.500421 -0.499579 -0.866268 680.824 206.366)" stroke="white" stroke-width="2.91946"/>
<line y1="-1.45973" x2="15.6762" y2="-1.45973" transform="matrix(-0.939569 0.34236 -0.341681 -0.939816 646.422 207.347)" stroke="white" stroke-width="2.91946"/>
<line y1="-1.45973" x2="15.6746" y2="-1.45973" transform="matrix(-0.984774 0.173837 -0.173459 -0.984841 611.684 208.818)" stroke="white" stroke-width="2.91946"/>
<line y1="-1.45973" x2="15.6785" y2="-1.45973" transform="matrix(0.865782 0.500421 -0.499579 0.866268 452.777 206.366)" stroke="white" stroke-width="2.91946"/>
<line y1="-1.45973" x2="15.6814" y2="-1.45973" transform="matrix(0.765689 0.643211 -0.642364 0.7664 418.684 204.895)" stroke="white" stroke-width="2.91946"/>
<line y1="-1.45973" x2="15.6845" y2="-1.45973" transform="matrix(0.642364 0.7664 -0.765689 0.643211 384.871 203.914)" stroke="white" stroke-width="2.91946"/>
<line y1="-1.45973" x2="15.6873" y2="-1.45973" transform="matrix(0.499579 0.866268 -0.865782 0.500421 351.277 203.423)" stroke="white" stroke-width="2.91946"/>
<line x1="557.004" y1="208.829" x2="572.678" y2="208.829" stroke="white" stroke-width="2.91946"/>
<line y1="-1.45973" x2="15.6746" y2="-1.45973" transform="matrix(0.984774 0.173837 -0.173459 0.984841 521.918 208.818)" stroke="white" stroke-width="2.91946"/>
<line y1="-1.45973" x2="15.6762" y2="-1.45973" transform="matrix(0.939569 0.34236 -0.341681 0.939816 487.18 207.347)" stroke="white" stroke-width="2.91946"/>
<line y1="-1.45973" x2="15.6785" y2="-1.45973" transform="matrix(-0.865782 0.500421 -0.499579 -0.866268 716.086 178.905)" stroke="white" stroke-width="2.91946"/>
<line y1="-1.45973" x2="15.6762" y2="-1.45973" transform="matrix(-0.939569 0.34236 -0.341681 -0.939816 681.688 179.886)" stroke="white" stroke-width="2.91946"/>
<line y1="-1.45973" x2="15.6746" y2="-1.45973" transform="matrix(-0.984774 0.173837 -0.173459 -0.984841 646.949 181.357)" stroke="white" stroke-width="2.91946"/>
<line y1="-1.45973" x2="15.6785" y2="-1.45973" transform="matrix(0.865782 0.500421 -0.499579 0.866268 488.043 178.905)" stroke="white" stroke-width="2.91946"/>
<line y1="-1.45973" x2="15.6814" y2="-1.45973" transform="matrix(0.765689 0.643211 -0.642364 0.7664 453.953 177.434)" stroke="white" stroke-width="2.91946"/>
<line y1="-1.45973" x2="15.6845" y2="-1.45973" transform="matrix(0.642364 0.7664 -0.765689 0.643211 420.133 176.453)" stroke="white" stroke-width="2.91946"/>
<line y1="-1.45973" x2="15.6873" y2="-1.45973" transform="matrix(0.499579 0.866268 -0.865782 0.500421 386.547 175.964)" stroke="white" stroke-width="2.91946"/>
<line y1="-1.45973" x2="15.6897" y2="-1.45973" transform="matrix(0.341681 0.939816 -0.939569 0.34236 353.137 175.473)" stroke="white" stroke-width="2.91946"/>
<line x1="592.27" y1="181.369" x2="607.944" y2="181.369" stroke="white" stroke-width="2.91946"/>
<line y1="-1.45973" x2="15.6746" y2="-1.45973" transform="matrix(0.984774 0.173837 -0.173459 0.984841 557.18 181.357)" stroke="white" stroke-width="2.91946"/>
<line y1="-1.45973" x2="15.6762" y2="-1.45973" transform="matrix(0.939569 0.34236 -0.341681 0.939816 522.441 179.886)" stroke="white" stroke-width="2.91946"/>
<line y1="-1.45973" x2="15.6762" y2="-1.45973" transform="matrix(-0.939569 0.34236 -0.341681 -0.939816 716.957 152.426)" stroke="white" stroke-width="2.91946"/>
<line y1="-1.45973" x2="15.6746" y2="-1.45973" transform="matrix(-0.984774 0.173837 -0.173459 -0.984841 682.219 153.896)" stroke="white" stroke-width="2.91946"/>
<line y1="-1.45973" x2="15.6785" y2="-1.45973" transform="matrix(0.865782 0.500421 -0.499579 0.866268 523.312 151.444)" stroke="white" stroke-width="2.91946"/>
<line y1="-1.45973" x2="15.6814" y2="-1.45973" transform="matrix(0.765689 0.643211 -0.642364 0.7664 489.219 149.974)" stroke="white" stroke-width="2.91946"/>
<line y1="-1.45973" x2="15.6845" y2="-1.45973" transform="matrix(0.642364 0.7664 -0.765689 0.643211 455.398 148.994)" stroke="white" stroke-width="2.91946"/>
<line y1="-1.45973" x2="15.6873" y2="-1.45973" transform="matrix(0.499579 0.866268 -0.865782 0.500421 421.812 148.502)" stroke="white" stroke-width="2.91946"/>
<line y1="-1.45973" x2="15.6897" y2="-1.45973" transform="matrix(0.341681 0.939816 -0.939569 0.34236 388.406 148.012)" stroke="white" stroke-width="2.91946"/>
<line y1="-1.45973" x2="15.6912" y2="-1.45973" transform="matrix(0.173459 0.984841 -0.984774 0.173837 355.117 147.522)" stroke="white" stroke-width="2.91946"/>
<line x1="627.539" y1="153.908" x2="643.213" y2="153.908" stroke="white" stroke-width="2.91946"/>
<line y1="-1.45973" x2="15.6746" y2="-1.45973" transform="matrix(0.984774 0.173837 -0.173459 0.984841 592.449 153.896)" stroke="white" stroke-width="2.91946"/>
<line y1="-1.45973" x2="15.6762" y2="-1.45973" transform="matrix(0.939569 0.34236 -0.341681 0.939816 557.711 152.426)" stroke="white" stroke-width="2.91946"/>
<line y1="-1.45973" x2="15.6746" y2="-1.45973" transform="matrix(-0.984774 0.173837 -0.173459 -0.984841 717.484 126.437)" stroke="white" stroke-width="2.91946"/>
<line y1="-1.45973" x2="15.6785" y2="-1.45973" transform="matrix(0.865782 0.500421 -0.499579 0.866268 558.578 123.984)" stroke="white" stroke-width="2.91946"/>
<line y1="-1.45973" x2="15.6814" y2="-1.45973" transform="matrix(0.765689 0.643211 -0.642364 0.7664 524.488 122.513)" stroke="white" stroke-width="2.91946"/>
<line y1="-1.45973" x2="15.6845" y2="-1.45973" transform="matrix(0.642364 0.7664 -0.765689 0.643211 490.668 121.532)" stroke="white" stroke-width="2.91946"/>
<line y1="-1.45973" x2="15.6873" y2="-1.45973" transform="matrix(0.499579 0.866268 -0.865782 0.500421 457.082 121.042)" stroke="white" stroke-width="2.91946"/>
<line y1="-1.45973" x2="15.6897" y2="-1.45973" transform="matrix(0.341681 0.939816 -0.939569 0.34236 423.668 120.552)" stroke="white" stroke-width="2.91946"/>
<line y1="-1.45973" x2="15.6912" y2="-1.45973" transform="matrix(0.173459 0.984841 -0.984774 0.173837 390.379 120.061)" stroke="white" stroke-width="2.91946"/>
<line x1="358.616" y1="120.061" x2="358.616" y2="135.753" stroke="white" stroke-width="2.91946"/>
<line x1="662.801" y1="126.448" x2="678.475" y2="126.448" stroke="white" stroke-width="2.91946"/>
<line y1="-1.45973" x2="15.6746" y2="-1.45973" transform="matrix(0.984774 0.173837 -0.173459 0.984841 627.715 126.437)" stroke="white" stroke-width="2.91946"/>
<line y1="-1.45973" x2="15.6762" y2="-1.45973" transform="matrix(0.939569 0.34236 -0.341681 0.939816 592.977 124.965)" stroke="white" stroke-width="2.91946"/>
<line y1="-1.45973" x2="15.6785" y2="-1.45973" transform="matrix(0.865782 0.500421 -0.499579 0.866268 593.848 96.5234)" stroke="white" stroke-width="2.91946"/>
<line y1="-1.45973" x2="15.6814" y2="-1.45973" transform="matrix(0.765689 0.643211 -0.642364 0.7664 559.754 95.0532)" stroke="white" stroke-width="2.91946"/>
<line y1="-1.45973" x2="15.6845" y2="-1.45973" transform="matrix(0.642364 0.7664 -0.765689 0.643211 525.934 94.0713)" stroke="white" stroke-width="2.91946"/>
<line y1="-1.45973" x2="15.6873" y2="-1.45973" transform="matrix(0.499579 0.866268 -0.865782 0.500421 492.344 93.582)" stroke="white" stroke-width="2.91946"/>
<line y1="-1.45973" x2="15.6897" y2="-1.45973" transform="matrix(0.341681 0.939816 -0.939569 0.34236 458.938 93.0908)" stroke="white" stroke-width="2.91946"/>
<line y1="-1.45973" x2="15.6912" y2="-1.45973" transform="matrix(0.173459 0.984841 -0.984774 0.173837 425.648 92.6011)" stroke="white" stroke-width="2.91946"/>
<line x1="393.886" y1="92.6011" x2="393.885" y2="108.293" stroke="white" stroke-width="2.91946"/>
<line y1="-1.45973" x2="15.6912" y2="-1.45973" transform="matrix(-0.173459 0.984841 -0.984774 -0.173837 359.195 92.6011)" stroke="white" stroke-width="2.91946"/>
<line x1="698.07" y1="98.987" x2="713.744" y2="98.987" stroke="white" stroke-width="2.91946"/>
<line y1="-1.45973" x2="15.6746" y2="-1.45973" transform="matrix(0.984774 0.173837 -0.173459 0.984841 662.984 98.9756)" stroke="white" stroke-width="2.91946"/>
<line y1="-1.45973" x2="15.6762" y2="-1.45973" transform="matrix(0.939569 0.34236 -0.341681 0.939816 628.246 97.5039)" stroke="white" stroke-width="2.91946"/>
<line y1="-1.45973" x2="15.6897" y2="-1.45973" transform="matrix(-0.341681 0.939816 -0.939569 -0.34236 361.176 65.6313)" stroke="white" stroke-width="2.91946"/>
<line y1="-1.45973" x2="15.6785" y2="-1.45973" transform="matrix(0.865782 0.500421 -0.499579 0.866268 629.109 69.0635)" stroke="white" stroke-width="2.91946"/>
<line y1="-1.45973" x2="15.6814" y2="-1.45973" transform="matrix(0.765689 0.643211 -0.642364 0.7664 595.02 67.5923)" stroke="white" stroke-width="2.91946"/>
<line y1="-1.45973" x2="15.6845" y2="-1.45973" transform="matrix(0.642364 0.7664 -0.765689 0.643211 561.203 66.6118)" stroke="white" stroke-width="2.91946"/>
<line y1="-1.45973" x2="15.6873" y2="-1.45973" transform="matrix(0.499579 0.866268 -0.865782 0.500421 527.613 66.1206)" stroke="white" stroke-width="2.91946"/>
<line y1="-1.45973" x2="15.6897" y2="-1.45973" transform="matrix(0.341681 0.939816 -0.939569 0.34236 494.203 65.6313)" stroke="white" stroke-width="2.91946"/>
<line y1="-1.45973" x2="15.6912" y2="-1.45973" transform="matrix(0.173459 0.984841 -0.984774 0.173837 460.914 65.1401)" stroke="white" stroke-width="2.91946"/>
<line x1="429.151" y1="65.1401" x2="429.151" y2="80.8319" stroke="white" stroke-width="2.91946"/>
<line y1="-1.45973" x2="15.6912" y2="-1.45973" transform="matrix(-0.173459 0.984841 -0.984774 -0.173837 394.465 65.1401)" stroke="white" stroke-width="2.91946"/>
<line y1="-1.45973" x2="15.6746" y2="-1.45973" transform="matrix(0.984774 0.173837 -0.173459 0.984841 698.25 71.5156)" stroke="white" stroke-width="2.91946"/>
<line y1="-1.45973" x2="15.6762" y2="-1.45973" transform="matrix(0.939569 0.34236 -0.341681 0.939816 663.512 70.0439)" stroke="white" stroke-width="2.91946"/>
<line y1="-1.45973" x2="15.6897" y2="-1.45973" transform="matrix(-0.341681 0.939816 -0.939569 -0.34236 396.441 38.1699)" stroke="white" stroke-width="2.91946"/>
<line y1="-1.45973" x2="15.6873" y2="-1.45973" transform="matrix(-0.499579 0.866268 -0.865782 -0.500421 363.035 38.6611)" stroke="white" stroke-width="2.91946"/>
<line y1="-1.45973" x2="15.6785" y2="-1.45973" transform="matrix(0.865782 0.500421 -0.499579 0.866268 664.379 41.6025)" stroke="white" stroke-width="2.91946"/>
<line y1="-1.45973" x2="15.6814" y2="-1.45973" transform="matrix(0.765689 0.643211 -0.642364 0.7664 630.285 40.1313)" stroke="white" stroke-width="2.91946"/>
<line y1="-1.45973" x2="15.6845" y2="-1.45973" transform="matrix(0.642364 0.7664 -0.765689 0.643211 596.465 39.1509)" stroke="white" stroke-width="2.91946"/>
<line y1="-1.45973" x2="15.6873" y2="-1.45973" transform="matrix(0.499579 0.866268 -0.865782 0.500421 562.879 38.6611)" stroke="white" stroke-width="2.91946"/>
<line y1="-1.45973" x2="15.6897" y2="-1.45973" transform="matrix(0.341681 0.939816 -0.939569 0.34236 529.473 38.1699)" stroke="white" stroke-width="2.91946"/>
<line y1="-1.45973" x2="15.6912" y2="-1.45973" transform="matrix(0.173459 0.984841 -0.984774 0.173837 496.184 37.6792)" stroke="white" stroke-width="2.91946"/>
<line x1="464.421" y1="37.6792" x2="464.421" y2="53.3709" stroke="white" stroke-width="2.91946"/>
<line y1="-1.45973" x2="15.6912" y2="-1.45973" transform="matrix(-0.173459 0.984841 -0.984774 -0.173837 429.73 37.6792)" stroke="white" stroke-width="2.91946"/>
<line y1="-1.45973" x2="15.6762" y2="-1.45973" transform="matrix(0.939569 0.34236 -0.341681 0.939816 698.781 42.583)" stroke="white" stroke-width="2.91946"/>
<line y1="-1.45973" x2="15.6897" y2="-1.45973" transform="matrix(-0.341681 0.939816 -0.939569 -0.34236 431.711 10.709)" stroke="white" stroke-width="2.91946"/>
<line y1="-1.45973" x2="15.6873" y2="-1.45973" transform="matrix(-0.499579 0.866268 -0.865782 -0.500421 398.301 11.2002)" stroke="white" stroke-width="2.91946"/>
<line y1="-1.45973" x2="15.6845" y2="-1.45973" transform="matrix(-0.642364 0.7664 -0.765689 -0.643211 364.711 11.6909)" stroke="white" stroke-width="2.91946"/>
<line y1="-1.45973" x2="15.6785" y2="-1.45973" transform="matrix(0.865782 0.500421 -0.499579 0.866268 699.645 14.1416)" stroke="white" stroke-width="2.91946"/>
<line y1="-1.45973" x2="15.6814" y2="-1.45973" transform="matrix(0.765689 0.643211 -0.642364 0.7664 665.555 12.6714)" stroke="white" stroke-width="2.91946"/>
<line y1="-1.45973" x2="15.6845" y2="-1.45973" transform="matrix(0.642364 0.7664 -0.765689 0.643211 631.734 11.6909)" stroke="white" stroke-width="2.91946"/>
<line y1="-1.45973" x2="15.6873" y2="-1.45973" transform="matrix(0.499579 0.866268 -0.865782 0.500421 598.148 11.2002)" stroke="white" stroke-width="2.91946"/>
<line y1="-1.45973" x2="15.6897" y2="-1.45973" transform="matrix(0.341681 0.939816 -0.939569 0.34236 564.738 10.709)" stroke="white" stroke-width="2.91946"/>
<line y1="-1.45973" x2="15.6912" y2="-1.45973" transform="matrix(0.173459 0.984841 -0.984774 0.173837 531.449 10.2192)" stroke="white" stroke-width="2.91946"/>
<line x1="499.682" y1="10.2192" x2="499.682" y2="25.911" stroke="white" stroke-width="2.91946"/>
<line y1="-1.45973" x2="15.6912" y2="-1.45973" transform="matrix(-0.173459 0.984841 -0.984774 -0.173837 465 10.2192)" stroke="white" stroke-width="2.91946"/>
</g>
<defs>
<clipPath id="clip0_3153_30431">
<rect width="720" height="960" fill="white"/>
</clipPath>
</defs>
</svg>
